# xmcd
#
# Track frame offsets:
#	150
#	13264
#	33187
#	49914
#	59637
#	73569
#	87509
#	99088
#	111970
#	127185
#	138137
#	155605
#	167649
#	179056
#	189052
#	199839
#
# Disc length: 2856 seconds
#
# Revision: 0
# Processed by: cddbd v1.5.1PL0 Copyright (c) Steve Scherf et al.
# Submitted via: dBpowerAMP V4.0
#
DISCID=e10b2610
DTITLE=Paul James Band - Lazy Crazy Blues
DYEAR=1998
DGENRE=Blues
TTITLE0=Joint Out Back
TTITLE1=Lazy Crazy Blues
TTITLE2=Mary Ann
TTITLE3=Good Old Rock and Roll
TTITLE4=Brokenhearted Lovers
TTITLE5=Mean and Evil
TTITLE6=Slow Jive
TTITLE7=Crazy Little Baby
TTITLE8=Suzette
TTITLE9=Anna Banana
TTITLE10=Hey Rosita
TTITLE11=I Got to Move
TTITLE12=I Don't Want to Get Married
TTITLE13=She Don't Care
TTITLE14=One More Heartache
TTITLE15=Lucky in Love
EXTD=Lazy Crazy Blues
EXTT0=
EXTT1=
EXTT2=
EXTT3=
EXTT4=
EXTT5=
EXTT6=
EXTT7=
EXTT8=
EXTT9=
EXTT10=
EXTT11=
EXTT12=
EXTT13=
EXTT14=
EXTT15=
PLAYORDER=
